<?xml version="1.0" encoding="UTF-8"?>
<!DOCTYPE svg PUBLIC "-//W3C//DTD SVG 1.1//EN" "http://www.w3.org/Graphics/SVG/1.1/DTD/svg11.dtd">
<!-- Creator: CorelDRAW X7 -->
<svg xmlns="http://www.w3.org/2000/svg" xml:space="preserve" width="480px" height="480px" version="1.1" style="shape-rendering:geometricPrecision; text-rendering:geometricPrecision; image-rendering:optimizeQuality; fill-rule:evenodd; clip-rule:evenodd"
viewBox="0 0 480 480"
 xmlns:xlink="http://www.w3.org/1999/xlink">
 <defs>
  <style type="text/css">
   <![CDATA[
    .fil0 {fill:none;fill-rule:nonzero}
    .fil6 {fill:#FBCB1F;fill-rule:nonzero}
    .fil7 {fill:#C46829;fill-rule:nonzero}
    .fil2 {fill:#93C534;fill-rule:nonzero}
    .fil8 {fill:#2890CF;fill-rule:nonzero}
    .fil3 {fill:#16476F;fill-rule:nonzero}
    .fil1 {fill:#1A446E;fill-rule:nonzero}
    .fil5 {fill:black;fill-rule:nonzero}
    .fil4 {fill:white;fill-rule:nonzero}
   ]]>
  </style>
 </defs>
 <g id="Layer_x0020_1">
  <metadata id="CorelCorpID_0Corel-Layer"/>
  <g id="_2318671990880">
   <path class="fil0" d="M382 390c1,0 1,0 2,0 32,-23 56,-56 68,-95 0,0 0,1 0,1 -13,38 -38,71 -70,94z"/>
   <polygon class="fil0" points="155,442 158,444 159,438 159,438 "/>
   <path class="fil0" d="M147 429c0,0 -1,-1 -1,-1l-6 9c0,1 0,2 1,2 3,2 6,1 7,-2 3,-4 2,-6 -1,-8z"/>
   <path class="fil0" d="M154 40c2,-1 2,-3 1,-5 -1,-1 -2,-1 -4,-1 0,1 0,1 0,1l2 5 1 0z"/>
   <polygon class="fil0" points="176,29 172,25 172,25 173,31 "/>
   <polygon class="fil0" points="241,466 239,472 242,472 241,466 "/>
   <path class="fil0" d="M215 460c0,-1 -1,-1 -1,-1l-1 6 1 0c1,1 3,0 3,-2 1,-2 0,-3 -2,-3z"/>
   <polygon class="fil0" points="135,422 130,425 133,427 135,422 "/>
   <path class="fil0" d="M461 237c0,6 0,11 -1,16 0,0 1,-1 1,-1 0,-4 0,-9 0,-14 0,0 0,0 0,-1z"/>
   <path class="fil0" d="M328 419c0,-1 0,-1 1,-1 -1,0 -1,0 -1,1z"/>
   <path class="fil0" d="M327 419c0,0 0,0 1,0 -1,0 -1,0 -1,0z"/>
   <path class="fil0" d="M122 417l-1 -1 -3 3c-1,1 -1,2 0,3 1,1 3,1 4,-1 2,-1 1,-3 0,-4z"/>
   <path class="fil0" d="M329 418c0,0 0,0 1,0 -1,0 -1,0 -1,0z"/>
   <path class="fil0" d="M325 419c1,0 1,0 1,0 0,0 0,0 -1,0z"/>
   <path class="fil0" d="M126 416c1,-2 0,-3 -1,-4l-1 0 -3 3 1 1c1,1 2,1 4,0z"/>
   <polygon class="fil0" points="208,11 208,11 208,17 211,16 "/>
   <path class="fil0" d="M149 378c-1,0 -1,0 -1,1 5,4 11,9 16,13 1,0 2,0 3,0 -7,-5 -13,-9 -18,-14z"/>
   <path class="fil0" d="M238 9c2,0 3,-1 3,-3 0,-2 -2,-3 -3,-3 -1,0 -1,0 -1,1l1 5 0 0z"/>
   <polygon class="fil0" points="411,422 413,428 416,426 411,422 "/>
   <polygon class="fil0" points="404,42 404,42 399,45 402,47 "/>
   <path class="fil0" d="M313 16c3,1 5,-2 6,-4 1,-5 -2,-7 -5,-8 0,0 0,0 -1,0l-2 10c0,2 1,2 2,2z"/>
   <polygon class="fil0" points="380,27 379,27 375,32 379,33 "/>
   <polygon class="fil0" points="355,454 355,459 358,458 355,454 "/>
   <polygon class="fil0" points="448,80 448,80 443,82 445,85 "/>
   <path class="fil0" d="M428 62c1,-2 1,-3 -1,-4 0,-1 0,-1 -1,-1l-3 4 0 1c2,1 3,1 5,0z"/>
   <polygon class="fil0" points="272,469 270,474 274,474 272,469 "/>
   <path class="fil0" d="M384 438c-3,2 -2,5 -1,7 2,3 5,5 7,4 4,-2 3,-5 1,-8 -1,-2 -4,-4 -7,-3z"/>
   <polygon class="fil0" points="330,9 330,9 327,14 330,15 "/>
   <path class="fil0" d="M269 7c2,0 3,-1 3,-4 0,-1 -1,-2 -3,-2 -1,0 -1,0 -1,0l0 6 1 0z"/>
   <polygon class="fil0" points="303,467 302,472 305,472 303,467 "/>
   <polygon class="fil0" points="293,3 293,3 290,8 294,8 "/>
   <polygon class="fil0" points="254,3 254,3 252,9 256,8 "/>
   <path class="fil0" d="M330 418c0,-1 1,-1 1,-1 0,0 -1,0 -1,1z"/>
   <path class="fil1" d="M140 151c7,4 15,8 23,12 11,-30 25,-52 42,-69 -5,-2 -10,-5 -14,-8 5,2 10,4 16,6 9,-9 20,-17 30,-23 0,-1 0,-1 0,-1 -3,-1 -5,-4 -5,-6 0,-4 8,-8 19,-11 -68,8 -125,53 -151,113 11,16 21,36 23,54 3,33 -13,53 -13,53 0,0 0,0 2,3 3,-8 10,-27 22,-41 2,-6 -1,-14 -9,-20 4,1 15,6 15,21 0,0 3,3 7,9 0,-1 0,-3 0,-5 3,-26 8,-49 14,-69 -10,-6 -18,-12 -21,-18z"/>
   <path class="fil1" d="M211 97c-15,17 -28,41 -38,70 29,10 61,15 91,15 1,-25 2,-49 4,-74 -21,-1 -41,-5 -57,-11z"/>
   <path class="fil1" d="M314 62c0,3 -2,5 -5,7 11,7 23,16 33,26 5,-1 9,-2 11,-3 19,-10 6,-21 6,-21 0,0 0,0 0,0 -19,-10 -41,-17 -63,-20 11,3 18,7 18,11z"/>
   <path class="fil1" d="M214 94c17,5 36,8 54,8 1,-6 1,-12 1,-18l0 -9 1 0c0,0 0,0 0,0l0 0c-10,0 -19,-2 -26,-4 0,0 0,1 0,1 -10,4 -21,11 -30,22z"/>
   <path class="fil1" d="M335 97c-11,-12 -22,-21 -33,-25 -8,2 -17,3 -28,3 0,0 0,0 0,0l1 0 0 9c0,6 0,12 1,18 23,1 44,-2 59,-5z"/>
   <path class="fil1" d="M340 104c-18,4 -41,6 -64,5 1,24 3,49 3,73 38,0 72,-7 93,-14 -8,-26 -19,-47 -32,-64z"/>
   <path class="fil1" d="M375 80c0,0 0,0 0,0 4,9 -7,17 -27,22 14,16 26,36 35,61 0,0 0,0 0,0 46,-22 27,-54 27,-54l0 0c-10,-11 -22,-21 -35,-29z"/>
   <path class="fil1" d="M171 391c-3,-7 -7,-17 -11,-28 -4,8 -9,12 -11,15 5,5 11,9 18,14 1,-1 3,-1 4,-1z"/>
   <path class="fil1" d="M382 390c32,-23 57,-56 70,-94 -5,3 -26,17 -57,28 -6,29 -14,52 -20,66 2,0 4,0 7,0z"/>
   <path class="fil1" d="M429 133c-4,19 -18,33 -42,44 5,18 9,38 11,61 2,24 2,46 0,66 28,-10 53,-26 62,-51 1,-5 1,-10 1,-16 0,-38 -12,-74 -32,-104z"/>
   <path class="fil1" d="M376 181c-16,6 -37,10 -62,13 -11,2 -23,2 -34,2 1,41 2,84 1,129 1,0 3,0 4,0l0 -74 27 0 0 41 15 -14 30 25 -11 0 0 15c11,-3 23,-5 34,-9 3,-16 5,-34 5,-53 0,-27 -3,-52 -9,-75z"/>
   <path class="fil1" d="M267 411c-2,-25 -3,-49 -3,-73 -38,-3 -66,-12 -85,-29 2,1 5,2 7,3 2,-5 2,-14 3,-19l-10 0 8 -6c0,0 0,-1 0,-1 -6,2 -7,-3 -7,-5 -4,1 -7,-3 -6,-7 -6,1 -10,-10 -1,-13 -6,-5 3,-11 5,-8 -3,-7 5,-9 6,-7 -2,-10 16,-16 16,-1 6,-1 8,6 6,8 7,-2 9,5 6,9 3,0 4,3 4,5l4 -3 0 1 0 -39 39 0 0 99c2,0 3,0 4,0 -1,-45 0,-88 1,-130 -35,-2 -69,-10 -93,-21 -7,24 -11,52 -11,82 0,3 0,7 1,10 7,14 13,30 13,46 0,9 -1,18 -3,25 7,24 15,42 21,54 19,1 33,8 52,15 8,3 15,5 23,5z"/>
   <path class="fil1" d="M353 392c7,-12 16,-33 23,-62 -16,4 -33,8 -51,9 -16,1 -31,1 -45,0 0,23 -1,47 -3,72 18,-1 33,-8 39,-10 4,-2 19,-7 37,-9z"/>
   <path class="fil2" d="M212 262c3,-4 1,-11 -6,-9 2,-2 0,-9 -6,-8 0,-15 -18,-9 -16,1 -1,-2 -9,0 -6,7 -2,-3 -11,3 -5,8 -9,3 -5,14 1,13 -1,4 2,8 6,7 0,2 1,7 7,5 0,0 0,1 0,1l29 -20c0,-2 -1,-5 -4,-5z"/>
   <path class="fil2" d="M189 293c-1,5 -1,14 -3,19 2,1 5,2 7,2l0 -21 -4 0z"/>
   <path class="fil3" d="M224 229l0 38 31 25 -16 0 0 31c6,1 11,1 17,1l0 -95 -32 0zm10 10l0 0 -6 0 0 -5 6 0 0 5zm9 0l0 0 -6 0 0 -5 6 0 0 5zm8 0l0 0 -5 0 0 -5 5 0 0 5z"/>
   <path class="fil4" d="M220 226l0 39 0 -1 -4 3 -29 20 -8 6 10 0 4 0 0 21c1,1 2,1 4,1l0 -25 -7 0 29 -22 26 21 -9 0 0 34c1,0 2,0 3,0l0 -31 16 0 -31 -25 0 -38 32 0 0 95c1,0 2,1 3,1l0 -99 -39 0z"/>
   <path class="fil3" d="M299 304l10 -9 0 -40 -20 0 0 69c6,0 13,0 20,-1l0 -19 -10 0zm1 -45l0 0 6 0 0 5 -6 0 0 -5zm0 8l0 0 6 0 0 5 -6 0 0 -5zm-3 5l0 0 -5 0 0 -5 5 0 0 5zm0 -8l0 0 -5 0 0 -5 5 0 0 5z"/>
   <path class="fil3" d="M348 300l-21 -18 -20 19 5 0 0 22c7,-1 14,-2 21,-3 3,-1 6,-1 10,-2l0 -18 5 0zm-27 6l0 0 -6 0 0 -5 6 0 0 5z"/>
   <path class="fil4" d="M357 303l-30 -25 -15 14 0 -41 -27 0 0 74c1,0 2,0 4,-1l0 -69 20 0 0 40 -10 9 10 0 0 19c1,0 2,0 3,0l0 -22 -5 0 20 -19 21 18 -5 0 0 18c1,0 2,0 3,0l0 -15 11 0z"/>
   <path class="fil5" d="M72 112c1,0 1,-1 2,0l8 5c1,1 1,1 0,2l0 0 1 1c0,-1 1,-2 1,-3 1,-1 2,-2 2,-2l0 -1 -1 0c0,1 0,2 -1,1l-9 -5c-1,-1 0,-2 0,-2l0 -1 0 0c-1,1 -1,2 -2,3 0,1 -1,1 -1,2l0 0 0 0z"/>
   <path class="fil5" d="M76 106c1,0 1,-1 1,-1 1,0 1,1 1,2l2 5 6 0c1,0 2,0 2,0 0,-1 1,-1 1,-2 0,0 1,-1 1,-1l0 -1c-1,1 -2,1 -2,1l-8 1 -1 -5c-1,-1 -1,-2 0,-3l0 0 0 -1c-1,1 -1,2 -2,3 0,0 -1,1 -1,2l0 0 0 0z"/>
   <path class="fil5" d="M81 100c0,-1 1,-1 1,-1l8 6c1,1 1,2 0,2l0 0 1 1c0,-1 2,-3 3,-4 1,-2 2,-4 3,-5 -1,0 -1,-1 -2,-2l-1 0c2,2 1,3 0,5 -1,1 -1,2 -2,1l-4 -3 1 -1c1,-2 2,-1 3,-1l0 0c-1,0 -1,-1 -2,-1 0,-1 -1,-1 -2,-2l0 1c1,0 1,1 1,2l-2 2 -4 -3 2 -2c1,-2 2,-2 3,-1l0 0c-1,-1 -2,-2 -2,-2 -1,1 -2,2 -3,4 -1,1 -2,3 -3,4l0 0 1 0z"/>
   <path class="fil5" d="M89 89c1,-1 1,-1 2,-1 1,1 2,2 3,3l3 4c1,1 2,1 1,2l-1 1 1 0c0,-1 1,-1 1,-2 1,-1 2,-1 2,-2l0 0 0 0c-1,0 -1,1 -1,1 -1,0 -1,0 -2,-1l-5 -6 0 0 11 4 0 -1 -5 -10 0 0 6 4c1,1 1,1 1,1 1,1 0,1 0,2l0 0c1,-1 2,-1 2,-2 1,-1 1,-2 2,-2l0 -1c-1,1 -1,2 -2,1l-7 -5c-1,0 -1,-1 -2,-1 0,-1 1,-2 1,-2l0 0 0 -1c-1,1 -1,2 -2,2 0,1 -1,1 -1,1l5 11 -11 -4c0,1 -1,1 -1,2 -1,0 -1,1 -2,1l1 1 0 0z"/>
   <path class="fil5" d="M102 74c1,-1 1,-1 2,0l7 7c1,0 0,1 0,2l0 0 0 0c1,-1 2,-2 3,-4 2,-1 3,-2 4,-3 0,-1 -1,-2 -1,-3l-1 0c1,2 1,3 -1,5 -1,1 -2,2 -3,1l-3 -3 2 -2c1,-1 1,-1 2,0l1 0c-1,-1 -1,-1 -2,-2 -1,0 -1,-1 -2,-1l0 0c1,1 1,1 0,2l-1 2 -4 -4 2 -2c1,-1 2,-1 3,0l0 0c0,-1 -1,-2 -2,-2 -1,1 -2,2 -3,3 -1,1 -3,3 -4,4l1 0 0 0z"/>
   <path class="fil5" d="M111 65c1,-1 2,-1 3,0l5 6c1,1 1,2 0,3l0 0 0 1c1,-1 2,-2 2,-2 1,-1 2,-1 2,-2l0 0 0 0c-1,1 -2,1 -3,-1l-5 -6 14 2 1 0c-1,-1 -1,-1 -2,-2l-5 -6c-2,-2 -1,-3 -1,-3l1 0 -1 -1c0,1 -1,1 -2,2 0,0 -1,1 -2,2l1 0 0 0c1,-1 2,-1 3,0l4 5 0 0 -12 -1c-1,0 -1,1 -2,1 0,1 -1,1 -1,1l0 1 0 0z"/>
   <path class="fil5" d="M125 55l1 0c-1,-1 -1,-2 0,-3l3 -2 6 9c1,1 0,1 0,2l-1 0 1 1c0,-1 1,-2 2,-2 1,-1 2,-2 3,-2l-1 -1 0 0c-1,1 -1,1 -2,0l-6 -8 2 -2c1,-1 2,0 2,1l1 -1c-1,0 -1,-1 -1,-1 -1,-1 -1,-1 -1,-2l0 1c0,0 -1,0 -1,1l-8 6c0,0 -1,0 -1,0l0 0c0,1 0,1 0,2 1,0 1,1 1,1z"/>
   <path class="fil5" d="M136 44c1,0 2,-1 2,0l6 9c0,0 0,1 -1,1l0 1 0 0c1,-1 3,-2 4,-3 2,-1 4,-2 5,-3 -1,-1 -1,-2 -1,-3l-1 1c1,2 0,2 -2,4 -1,0 -2,1 -2,0l-3 -4 2 -1c1,-1 2,0 2,1l1 -1c-1,0 -1,-1 -2,-2 0,0 0,-1 -1,-1l0 0c0,1 0,1 -1,2l-2 1 -2 -4 2 -1c2,-1 2,-1 3,0l0 0c0,-1 -1,-2 -1,-3 -1,1 -3,2 -4,3 -2,1 -3,2 -4,3l0 0 0 0z"/>
   <path class="fil5" d="M147 37c1,0 1,-1 2,0l5 9c0,0 0,1 -1,1l0 1 0 0c1,0 2,-1 3,-1 1,-1 2,-1 3,-2l-1 0 0 0c-1,0 -1,0 -2,-1l-2 -3 1 -1c2,1 4,2 7,3 0,0 1,0 1,-1 1,0 1,0 2,-1l-1 0c0,0 -1,0 -2,0l-5 -3c1,-1 1,-2 0,-4 -1,-2 -3,-2 -5,-1 -1,1 -2,1 -3,2 -1,1 -2,1 -2,2l0 0 0 0zm4 -3l0 0c2,0 3,0 4,1 1,2 1,4 -1,5l-1 0 -2 -5c0,0 0,0 0,-1z"/>
   <path class="fil5" d="M160 29c0,0 1,0 2,1l4 9c1,1 0,1 0,1l-1 0 1 1c0,0 1,-1 2,-1 1,-1 2,-1 3,-2l0 0 -1 0c0,0 -1,0 -1,0l-5 -9c-1,-1 0,-2 1,-2l0 0 0 -1c-1,1 -2,1 -3,2 -1,0 -2,1 -3,1l1 1 0 -1z"/>
   <path class="fil5" d="M172 35c1,1 0,2 0,2l-1 0 1 1c0,-1 1,-1 2,-1 0,-1 1,-1 2,-1l-1 -1 0 0c0,1 -1,1 -1,0 -1,0 -1,0 -1,-1l0 -2 4 -2 2 2c0,0 0,0 1,1 0,0 -1,1 -1,1l0 0 0 0c1,0 2,-1 2,-1 1,0 2,-1 3,-1l0 -1 -1 0c0,1 -1,1 -1,0 -1,0 -1,-1 -2,-1l-7 -8c0,0 0,0 0,0 0,0 0,0 -1,0 0,0 0,0 0,0 0,0 0,1 -1,1 0,1 0,2 1,3l0 9zm0 -10l0 0 4 4 -3 2 -1 -6 0 0z"/>
   <path class="fil5" d="M180 19c1,0 2,0 2,1l3 8c1,1 1,2 0,3l-1 0 1 1c0,-1 1,-1 2,-1 1,-1 2,-1 2,-1l0 -1 0 0c-2,1 -2,0 -3,-1l-3 -8 14 7 0 0c0,-1 0,-1 0,-2l-4 -8c0,-2 0,-3 1,-3l0 0 0 -1c-1,1 -1,1 -2,1 -1,1 -2,1 -3,1l1 1 0 0c1,-1 2,-1 2,1l3 6 0 0 -12 -5c0,0 -1,0 -1,0 -1,1 -2,1 -2,1l0 1 0 -1z"/>
   <path class="fil5" d="M207 23c1,0 2,0 2,0l0 -1 0 0c0,0 -1,0 -1,0 -1,0 0,-1 0,-2l0 -2 4 -1 1 2c0,1 1,1 1,1 0,1 -1,1 -1,1l0 0 0 1c1,-1 2,-1 3,-1 0,0 1,-1 2,-1l0 0 0 0c-1,0 -1,0 -2,-1 0,0 0,-1 -1,-1l-6 -9c0,0 0,0 0,-1 0,0 0,0 0,0 0,0 0,0 -1,0 0,1 0,1 -1,2 0,0 0,1 0,2l-1 10c0,0 0,1 -1,1l0 0 0 1c1,0 2,-1 2,-1zm1 -12l0 0 0 0 3 5 -3 1 0 -6z"/>
   <path class="fil5" d="M227 19c2,-1 3,-2 5,-2l0 -1 -1 0 0 -3c-1,0 0,-1 0,-1l1 0 0 -1c-1,1 -2,1 -3,1 -1,0 -2,0 -3,1l0 0 1 0c0,0 1,0 1,1l1 3c0,0 -1,1 -2,1 -4,0 -6,-3 -7,-6 0,-3 1,-6 4,-6 2,-1 4,0 5,2l1 0c-1,-1 -1,-3 -1,-4 -1,1 -2,1 -2,1 -1,0 -2,0 -3,0 -4,1 -7,4 -6,8 1,5 4,6 9,6z"/>
   <path class="fil5" d="M233 4c0,0 1,0 1,1l2 10c0,1 -1,1 -1,1l-1 0 0 1c1,0 2,-1 3,-1 1,0 2,0 3,0l0 -1 0 0c-1,0 -2,0 -2,-1l0 -4 1 0c1,2 3,4 5,5 0,0 1,0 2,0 0,0 1,0 1,0l0 -1c-1,0 -1,0 -2,-1l-4 -4c2,-1 3,-2 2,-4 0,-2 -2,-3 -5,-2 -1,0 -1,0 -3,0 -1,0 -2,0 -3,0l1 1 0 0zm5 -1l0 0c1,0 3,1 3,3 0,2 -1,3 -3,3l0 0 -1 -5c0,-1 0,-1 1,-1z"/>
   <path class="fil5" d="M251 14c1,0 1,0 2,0l0 0 0 0c-1,0 -2,0 -2,-1 0,0 1,-1 1,-1l0 -2 5 -1 0 2c1,1 1,2 1,2 0,0 -1,0 -1,0l0 0 0 1c1,0 2,0 3,0 0,0 1,0 2,0l0 -1 0 0c-1,0 -1,0 -1,-1 -1,0 -1,-1 -1,-2l-4 -9c-1,0 -1,-1 -1,-1 0,0 0,0 0,0 0,0 0,0 0,0 0,0 -1,1 -2,1 0,1 0,2 0,3l-3 9c0,1 0,1 -1,1l0 0 0 1c0,0 1,-1 2,-1zm3 -11l0 0 0 0 2 5 -4 1 2 -6z"/>
   <path class="fil5" d="M264 1c0,0 1,0 1,1l0 10c0,1 0,1 -1,1l0 0 0 1c1,0 2,-1 3,-1 1,0 2,0 3,0l0 0 -1 0c0,0 -1,0 -1,-2l0 -4 1 0c1,2 3,4 4,6 1,0 1,0 2,0 1,0 1,0 2,0l0 0c-1,0 -1,-1 -2,-1l-3 -5c1,-1 2,-2 2,-4 0,-2 -2,-3 -4,-3 -1,0 -2,0 -3,0 -2,0 -3,0 -3,0l0 1 0 0zm5 0l0 0c2,0 3,1 3,2 0,3 -1,4 -3,4l-1 0 0 -6c0,0 0,0 1,0z"/>
   <path class="fil5" d="M281 13c1,1 2,1 3,1l0 -1 0 0c-1,0 -1,0 -1,-1l0 -10c0,-1 1,-1 1,-1l1 0 0 -1c-1,0 -2,0 -3,0 -1,0 -2,0 -3,0l0 1 0 0c1,0 2,0 1,1l0 10c0,1 -1,1 -1,1l-1 0 0 0c1,0 2,0 3,0z"/>
   <path class="fil5" d="M290 14l0 -1 0 0c-1,0 -2,0 -1,0 0,-1 0,-1 0,-2l1 -2 4 1 1 2c0,1 0,1 0,1 0,1 -1,1 -1,1l0 0 0 0c1,0 1,0 2,0 1,1 2,1 3,1l0 -1 0 0c-1,0 -1,0 -1,-1 0,0 -1,-1 -1,-2l-2 -10c0,0 -1,0 -1,-1 0,0 0,0 0,0 0,0 0,0 0,0 0,1 -1,1 -2,1 0,1 0,2 -1,2l-3 9c-1,1 -1,1 -2,1l0 0 0 1c0,0 1,0 2,0 1,0 1,0 2,0zm3 -11l0 0 0 0 1 5 -4 0 3 -5z"/>
   <path class="fil5" d="M313 17c4,1 8,-2 9,-5 0,-4 -2,-7 -7,-8 -1,0 -2,-1 -3,-1 -1,0 -2,0 -3,0l0 0 0 0c1,0 2,1 2,2l-2 9c0,1 -1,1 -2,1l0 0 0 1c0,0 2,0 3,0 1,1 3,1 3,1zm-2 -3l0 0 2 -10c1,0 1,0 1,0 3,1 6,3 5,8 -1,2 -3,5 -6,4 -1,0 -2,0 -2,-2z"/>
   <path class="fil5" d="M321 18l0 0c1,1 2,1 2,1 1,0 2,0 3,1l0 -1 -1 0c0,0 -1,-1 -1,-1 0,0 1,-1 1,-1l1 -2 4 1 0 2c1,1 1,1 1,2 -1,0 -1,0 -2,0l0 0 0 0c1,1 2,1 3,1 1,0 1,0 2,1l0 -1 0 0c0,0 -1,0 -1,-1 0,-1 0,-1 0,-2l-1 -11c0,0 0,0 0,0 0,0 0,0 0,0 0,0 0,0 0,0 -1,0 -2,0 -2,0 0,1 -1,2 -1,2l-6 8c0,1 -1,1 -2,1l0 0zm9 -9l0 0 0 0 0 6 -3 -1 3 -5z"/>
   <path class="fil5" d="M340 24l1 -1 -1 0c-1,0 -1,-1 -1,-3l3 -7 6 13 0 1c0,-1 1,-2 1,-2l3 -9c0,-2 1,-2 2,-1l0 0 0 -1c0,0 -1,0 -2,-1 -1,0 -2,0 -2,0l-1 0 1 0c0,0 1,1 1,2l-2 7 0 0 -6 -11c0,-1 -1,-1 -1,-1 -1,0 -2,0 -2,-1l0 1 0 0c1,0 1,1 1,2l-3 8c0,1 -1,2 -2,2l0 0 0 0c0,0 1,1 2,1 1,0 2,0 2,1z"/>
   <path class="fil5" d="M366 33l0 0 0 0c-1,-1 -2,-1 -1,-2l4 -10 3 1c1,1 1,2 1,3l0 0c0,-1 1,-1 1,-2 0,0 0,-1 1,-1l-1 0c0,0 0,0 -1,0l-9 -4c0,0 -1,0 -1,-1l0 0c0,0 -1,1 -1,1 0,1 -1,1 -1,2l1 0c0,-1 1,-2 2,-1l3 1 -4 10c-1,1 -1,1 -2,1l-1 -1 0 1c1,0 2,1 3,1 1,1 2,1 3,1z"/>
   <path class="fil5" d="M369 34l0 0 0 1c1,0 1,0 2,1 1,0 1,0 2,1l0 -1 0 0c-1,0 -1,-1 -1,-1 0,0 1,-1 1,-1l2 -2 3 2 0 3c0,0 0,1 0,1 0,0 -1,0 -1,0l-1 0 0 0c1,1 2,1 3,2 1,0 1,1 2,1l0 -1 0 0c0,0 -1,0 -1,-1 0,-1 1,-1 1,-2l1 -11c0,0 0,0 0,0 0,0 0,0 0,0 0,0 0,0 0,0 -1,0 -1,0 -2,0 0,0 -1,1 -2,2l-7 6c0,1 -1,1 -2,0zm10 -7l0 0 1 0 -1 6 -4 -1 4 -5z"/>
   <path class="fil5" d="M390 46l0 -1 0 0c-1,0 -2,-1 -1,-2l5 -9 3 2c1,0 1,2 0,2l1 0c0,0 0,-1 1,-1 0,-1 0,-1 1,-1l-1 -1c0,1 -1,1 -1,0l-9 -5c0,0 0,0 0,-1l-1 0c0,1 0,1 -1,1 0,1 0,1 -1,2l1 0c1,-1 1,-1 2,-1l3 2 -5 9c-1,1 -1,1 -2,0l-1 0 0 1c1,0 2,1 3,1 1,1 2,2 3,2z"/>
   <path class="fil5" d="M393 47l0 0 -1 1c1,0 2,0 2,1 1,0 2,1 2,1l0 0 0 0c0,-1 -1,-1 -1,-2 1,0 1,0 2,-1l1 -1 4 2 -1 3c0,0 0,1 0,1 0,0 -1,0 -1,0l-1 0 0 0c1,1 2,1 2,2 1,0 2,1 3,1l0 0 0 0c-1,-1 -1,-1 -1,-2 0,0 1,-1 1,-2l2 -10c0,0 0,0 1,-1 0,0 -1,0 -1,0 0,0 0,0 0,0 0,0 -1,0 -2,0 0,0 -1,1 -2,2l-7 5c-1,1 -1,1 -2,0zm11 -5l0 0 0 0 -2 5 -3 -2 5 -3z"/>
   <path class="fil5" d="M420 68l0 -1 0 0c-1,0 -1,-1 -1,-2l3 -3 1 1c0,2 -1,5 -1,7 1,0 1,1 2,1 0,1 0,1 1,2l0 -1c0,-1 -1,-1 0,-2l0 -6c2,1 3,1 5,-1 1,-2 0,-4 -2,-5 0,-1 -1,-1 -2,-2 -1,-1 -2,-2 -2,-2l-1 0 1 0c0,1 1,1 0,2l-7 8c0,0 -1,0 -1,0l-1 -1 0 1c1,1 1,1 2,2 1,0 2,1 3,2zm6 -11l0 0c1,0 1,0 1,1 2,1 2,2 1,4 -2,1 -3,1 -5,0l0 -1 3 -4z"/>
   <path class="fil5" d="M435 66l-5 5c-3,3 -2,5 1,8 2,2 4,2 7,-1l5 -4c0,-1 1,-1 1,0l1 0 0 0c0,-1 -1,-1 -2,-2 0,-1 -1,-1 -1,-2l-1 1 1 0c0,0 1,1 0,2l-5 5c-2,2 -4,2 -5,0 -2,-2 -2,-4 0,-5l4 -5c1,-1 2,-1 3,0l0 0 0 0c0,-1 -1,-1 -2,-2 -1,-1 -1,-2 -2,-3l0 1 0 0c0,1 1,1 0,2z"/>
   <path class="fil5" d="M436 83l0 0 0 0c0,1 1,1 1,2 1,0 1,1 2,1l0 0 0 0c-1,-1 -1,-1 -1,-2 1,0 1,0 2,0l2 -1 3 3 -1 2c-1,1 -1,1 -1,1 -1,1 -1,0 -1,0l-1 0 0 0c1,1 1,1 2,2 1,1 1,2 2,2l0 0 0 0c0,-1 -1,-1 0,-2 0,0 0,-1 1,-2l5 -9c0,0 0,0 0,0 0,0 0,-1 0,-1 0,0 0,0 0,0 -1,0 -1,0 -2,0 0,0 -1,0 -2,1l-9 3c-1,1 -1,0 -2,0zm12 -3l0 0 0 0 -3 5 -2 -3 5 -2z"/>
   <path class="fil5" d="M456 89l-7 5c-1,1 -2,1 -3,0l0 0 0 0c0,1 1,2 1,2 1,1 1,2 2,2l0 0 0 0c-1,-2 -1,-2 1,-3l6 -5 -3 15 1 0c0,0 1,-1 1,-1l7 -6c2,-1 3,0 3,0l0 1 1 -1c-1,0 -1,-1 -2,-2 0,0 -1,-1 -1,-2l-1 1 0 0c1,0 1,1 0,2l-6 5 0 0 3 -13c-1,0 -1,-1 -2,-1 0,-1 0,-1 -1,-2l0 0 0 1c0,0 0,1 0,2z"/>
   <path class="fil5" d="M462 104c-4,3 -4,7 -2,11 1,1 2,2 4,4l0 -1 0 0 2 -2c1,0 1,0 2,1l0 0 0 -1c0,0 -1,-1 -1,-2 -1,0 -1,-1 -2,-2l0 0 0 0c0,1 1,2 0,2l-3 2c0,0 -1,-1 -1,-2 -2,-3 0,-6 3,-8 2,-1 5,-1 7,1 1,2 2,4 0,6l0 0c1,0 2,-1 3,-2 0,0 -1,-1 -1,-2 0,0 -1,-1 -1,-2 -2,-3 -6,-5 -10,-3z"/>
   <path class="fil5" d="M124 423c2,-2 1,-4 -1,-5l0 0c2,0 4,1 5,-1 1,-1 1,-3 -2,-5 0,0 -1,-1 -2,-2 -1,0 -2,-1 -2,-2l-1 1 1 0c0,0 1,1 0,2l-7 7c0,1 -1,1 -1,0l-1 0 0 1c1,0 2,1 3,2 1,0 2,1 2,2 2,2 5,2 6,0zm0 -11l0 0 1 0c1,1 2,2 1,4 -2,1 -3,1 -4,0l-1 -1 3 -3zm-2 9l0 0c-1,2 -3,2 -4,1 -1,-1 -1,-2 0,-3l3 -3 1 1c1,1 2,3 0,4z"/>
   <path class="fil5" d="M134 433c0,0 0,-1 0,-2l4 -10c0,0 0,0 0,0 0,0 0,0 0,0 0,0 0,0 0,0 -1,0 -2,-1 -2,-1 -1,1 -2,1 -2,2l-8 5c-1,0 -2,0 -2,0l0 0 -1 0c1,1 1,1 2,1 1,1 1,1 2,2l0 -1 0 0c-1,0 -1,-1 -1,-1 0,0 1,-1 2,-1l1 -1 4 2 -1 3c0,0 0,1 -1,1 0,0 -1,0 -1,0l0 0 0 0c0,1 1,1 2,2 1,0 1,1 2,1l0 0 0 0c0,-1 0,-1 0,-2zm-4 -8l0 0 5 -3 0 0 -2 5 -3 -2z"/>
   <path class="fil5" d="M151 438c2,-3 1,-7 -3,-9 -1,-1 -1,-1 -2,-2 -1,-1 -3,-1 -3,-2l0 1 0 0c0,0 1,1 0,2l-5 8c-1,1 -1,1 -2,0l0 0 0 1c0,0 1,0 2,1 1,1 3,2 3,2 3,3 8,2 10,-2zm-3 -1l0 0c-1,3 -4,4 -7,2 -1,0 -1,-1 -1,-2l6 -9c0,0 1,1 1,1 3,2 4,4 1,8z"/>
   <path class="fil5" d="M159 450c0,-1 1,-2 1,-2l2 -11c0,0 0,0 0,0 0,-1 0,-1 0,-1 0,0 0,0 0,0 -1,0 -2,0 -2,0 -1,1 -2,1 -2,2l-7 6c-1,1 -2,1 -2,0l0 0 -1 1c1,0 2,0 2,1 1,0 1,1 2,1l0 0 0 -1c0,0 -1,0 -1,-1 0,0 1,-1 1,-1l2 -1 4 2 -1 2c0,1 0,1 0,1 0,1 -1,1 -1,0l-1 0 0 1c1,0 2,1 3,1 0,1 1,1 2,2l0 -1 0 0c0,0 -1,-1 -1,-1zm-1 -6l0 0 -3 -2 4 -4 0 0 -1 6z"/>
   <path class="fil5" d="M177 445l0 0 0 1c0,0 1,1 1,2l-3 6 -1 0 -3 -12c-1,0 -1,0 -2,-1 0,0 -1,0 -2,-1l0 1 0 0c1,0 2,1 1,2l-3 8c-1,1 -2,2 -3,1l0 0 0 0c0,1 1,1 2,2 1,0 1,0 2,1l0 -1 0 0c-1,-1 -1,-1 0,-3l3 -7 4 14 1 1c0,-1 0,-2 0,-2l4 -8c1,-2 2,-2 3,-2l0 1 0 -1c0,0 -1,-1 -2,-1 -1,0 -1,-1 -2,-1z"/>
   <path class="fil5" d="M196 457c1,-3 0,-4 -3,-5 -1,-1 -2,-1 -2,-1 -1,0 -2,-1 -3,-1l0 0 0 0c1,1 1,1 1,2l-4 9c0,1 -1,1 -1,1l-1 0 0 0c1,1 2,1 3,1 1,1 2,1 3,2l0 -1 0 0c-1,0 -2,-1 -1,-2l3 -10 1 0c2,1 2,2 2,4 -1,2 -2,3 -4,2l0 0 0 1c0,0 1,0 1,0 2,1 4,0 5,-2z"/>
   <path class="fil5" d="M203 455c-2,0 -3,-1 -5,-1l0 0 1 0c0,1 1,1 1,2l-4 10c0,0 -1,0 -1,0l-1 0 0 1c1,0 4,1 5,1 2,1 4,1 5,2 1,-1 1,-2 2,-3l-1 0c-1,2 -2,2 -4,1 -1,-1 -2,-1 -2,-2l1 -4 2 0c2,1 2,1 1,3l1 0c0,-1 0,-2 1,-2 0,-1 0,-2 0,-3l0 0c-1,1 -1,2 -2,1l-2 0 1 -5 3 1c2,0 1,1 1,3l1 0c0,-1 0,-2 1,-3 -2,-1 -4,-1 -5,-2z"/>
   <path class="fil5" d="M220 464c0,-3 -2,-4 -4,-5 -1,0 -2,0 -3,-1 -1,0 -2,0 -3,0l0 0 0 0c1,0 2,1 1,2l-2 9c0,1 -1,1 -2,1l0 0 0 1c1,0 2,0 3,0 1,1 2,1 3,1l0 0 0 0c-1,-1 -2,-1 -2,-2l1 -4 2 0c0,2 1,5 2,7 1,0 1,0 2,0 0,1 1,1 2,1l0 -1c-1,0 -2,0 -2,-1l-2 -6c2,0 3,-1 4,-2zm-3 -1l0 0c0,2 -2,3 -3,2l-1 0 1 -6c0,0 1,0 1,1 2,0 3,1 2,3z"/>
   <path class="fil5" d="M235 466l0 0c1,-1 1,-1 1,-2 0,0 0,-1 0,-1l0 0c0,0 -1,0 -1,0l-10 -2c-1,0 -1,0 -1,0l-1 -1c0,1 0,1 0,2 0,1 0,1 -1,2l1 0c1,-2 1,-2 2,-2l3 1 -2 10c0,2 -1,2 -2,1l0 0 0 1c1,0 2,0 3,0 1,1 2,1 3,1l0 -1 0 0c-1,0 -2,0 -1,-2l2 -10 3 1c1,0 1,1 1,2z"/>
   <path class="fil5" d="M246 477c0,-1 0,-1 0,-2l-3 -10c0,-1 0,-1 0,-1 0,0 0,0 0,0 0,0 0,0 0,0 0,0 -1,0 -2,1 0,0 0,1 -1,2l-4 8c0,1 -1,1 -2,1l0 0 0 1c1,0 1,0 2,0 1,0 2,0 2,0l0 0 0 0c0,0 -1,-1 -1,-1 0,0 0,-1 0,-2l1 -1 5 0 0 2c0,1 0,2 0,2 0,0 -1,0 -1,0l0 0 0 1c1,0 2,0 3,0 1,0 1,0 2,1l0 -1 0 0c0,0 -1,0 -1,-1zm-7 -5l0 0 2 -6 0 0 1 6 -3 0z"/>
   <path class="fil5" d="M260 466l0 1 1 0c0,0 1,0 1,2l0 7 0 0 -8 -10c-1,0 -1,0 -2,0 0,0 -1,-1 -2,-1l0 1 0 0c1,0 2,1 2,2l-1 8c0,1 0,2 -2,2l0 0 0 1c1,0 2,0 3,0 1,0 1,0 2,0l0 0 0 0c-2,-1 -2,-1 -2,-3l1 -8 9 12 1 0c0,-1 0,-1 0,-2l0 -9c0,-2 1,-2 2,-2l0 0 0 -1c0,0 -1,0 -2,0 -1,0 -2,0 -3,0z"/>
   <path class="fil5" d="M278 479c0,-1 -1,-2 -1,-2l-3 -11c0,0 0,0 0,0 -1,0 -1,0 -1,0 0,0 0,0 0,0 0,0 -1,1 -2,1 0,0 0,1 0,2l-3 9c-1,1 -1,1 -2,1l0 0 0 1c0,0 1,0 2,0 1,0 1,0 2,0l0 -1 0 0c-1,0 -2,0 -2,0 0,-1 1,-1 1,-2l1 -2 4 0 1 2c0,1 0,2 0,2 0,0 -1,0 -1,0l0 0 0 1c1,0 2,0 2,0 1,0 2,0 3,0l0 -1 0 0c-1,0 -1,0 -1,0zm-8 -5l0 0 2 -5 0 0 2 5 -4 0z"/>
   <path class="fil5" d="M296 478c0,0 -1,0 -1,-1l-1 -10c0,-1 1,-1 1,-1l1 0 0 -1c-1,0 -2,1 -3,1 -1,0 -2,0 -3,0l0 0 0 0c1,0 2,0 2,1l0 5 -7 0 0 -4c0,-1 0,-1 1,-1l0 0 0 -1c0,0 -2,0 -3,0 -1,0 -2,0 -3,0l0 1 1 0c0,0 1,0 1,1l1 10c0,1 -1,1 -1,1l-1 0 0 1c1,0 2,0 3,0 1,0 2,0 3,-1l0 0 0 0c-1,0 -2,0 -2,-1l0 -5 7 0 0 4c0,2 0,2 -1,2l0 0 0 0c0,0 2,0 3,0 1,0 2,0 3,0l0 -1 -1 0z"/>
   <path class="fil5" d="M312 476c-1,0 -1,0 -2,0 0,-1 0,-2 -1,-2l-4 -10c-1,0 -1,0 -1,0 0,0 0,0 0,0 0,0 0,0 0,0 0,0 -1,1 -2,1 0,1 0,2 0,2l-2 10c0,0 -1,1 -1,1l-1 0 1 1c0,0 1,-1 2,-1 0,0 1,0 2,0l0 -1 0 1c-1,0 -2,0 -2,-1 0,0 0,-1 0,-2l1 -2 4 0 1 2c0,1 1,1 1,1 0,1 -1,1 -1,1l-1 0 0 1c1,-1 2,-1 3,-1 1,0 2,0 3,0l0 -1 0 0zm-10 -4l0 0 1 -5 0 0 2 5 -3 0z"/>
   <path class="fil5" d="M325 464c-1,-3 0,-3 1,-3l0 0 0 -1c-1,0 -1,1 -2,1 -1,0 -2,0 -3,0l0 1 1 0c0,0 2,0 2,1l1 7 0 0 -10 -7c-1,0 -1,0 -2,0 0,0 -1,0 -2,0l0 1 0 0c1,0 2,0 3,1l1 8c0,2 0,3 -1,3l0 0 0 1c1,-1 1,-1 2,-1 1,0 2,0 3,0l0 -1 -1 0c-1,0 -2,0 -2,-2l-1 -8 11 9 1 0c0,0 0,-1 0,-2l-2 -8z"/>
   <path class="fil5" d="M347 457c-1,-2 0,-2 1,-2l0 0 0 -1c-1,0 -2,1 -2,1 -1,0 -2,0 -3,0l0 1 1 0c0,0 1,0 2,1l2 7 0 0 -11 -7c-1,1 -1,1 -2,1 -1,0 -1,0 -2,1l0 0 0 0c1,0 2,0 3,1l2 8c0,1 0,2 -1,3l0 0 0 0c1,0 2,0 2,0 1,-1 2,-1 3,-1l0 -1 -1 0c-1,1 -2,0 -2,-1l-2 -8 12 8 1 0c0,-1 0,-2 -1,-2l-2 -9z"/>
   <path class="fil5" d="M365 461c0,0 -1,0 -1,0 -1,-1 -1,-1 -2,-2l-7 -8c0,0 0,0 0,0 0,0 0,0 0,0 0,0 0,0 0,0 0,0 -1,1 -1,1 0,1 0,2 0,3l0 9c0,1 0,2 -1,2l0 0 0 0c1,0 1,0 2,0 1,-1 1,-1 2,-1l0 -1 0 0c-1,1 -2,1 -2,0 0,0 0,-1 0,-1l0 -2 4 -2 1 2c1,0 1,1 1,1 0,0 0,1 -1,1l0 0 0 1c1,-1 2,-1 3,-2 1,0 2,0 3,0l-1 -1 0 0zm-10 -2l0 0 0 -5 0 0 3 4 -3 1z"/>
   <path class="fil5" d="M365 450c0,-1 0,-3 2,-3 1,-1 2,0 3,1l0 0c0,-1 -1,-2 -1,-3 -1,1 -2,1 -3,1 -2,1 -3,3 -2,6 2,4 6,1 8,4 0,1 0,2 -1,3 -2,0 -3,-1 -4,-2l-1 0c1,1 1,2 2,3 1,0 2,0 3,-1 2,-1 3,-3 2,-5 -1,-4 -6,-1 -8,-4z"/>
   <path class="fil5" d="M382 453c-1,1 -2,1 -2,0l-5 -9c0,-1 1,-1 1,-2l0 0 0 0c-1,0 -2,1 -2,1 -1,1 -2,1 -3,1l0 1 0 0c1,-1 2,-1 2,0l5 9c0,1 -1,1 -1,2l0 0 0 0c1,0 2,-1 2,-1 1,0 2,-1 3,-1l0 -1 0 0z"/>
   <path class="fil5" d="M384 437c-4,2 -5,7 -3,10 2,4 6,5 10,3 3,-2 5,-7 2,-10 -2,-4 -6,-5 -9,-3zm6 12l0 0c-2,1 -5,-1 -7,-4 -1,-2 -2,-5 1,-7 3,-1 6,1 7,3 2,3 3,6 -1,8z"/>
   <path class="fil5" d="M404 428c-1,-2 0,-2 1,-3l0 0 -1 0c0,0 -1,1 -1,1 -1,0 -2,1 -3,1l1 1 0 0c0,-1 1,-1 2,0l4 6 0 0 -12 -3c-1,0 -1,1 -2,1 0,0 -1,1 -1,1l0 1 0 0c1,-1 2,-1 3,0l4 7c1,1 1,2 0,3l0 0 0 0c1,0 1,-1 2,-1 1,-1 2,-1 2,-1l0 -1 0 0c-2,1 -2,1 -3,-1l-4 -6 14 4 0 -1c0,0 0,-1 -1,-1l-5 -8z"/>
   <path class="fil5" d="M423 427c0,0 -1,0 -1,0 -1,-1 -1,-1 -2,-1l-9 -6c0,0 0,-1 0,-1 0,0 0,0 0,0 -1,0 -1,0 -1,1 0,0 0,1 0,1 0,1 0,2 0,3l3 9c1,0 0,1 0,2l0 0 0 0c0,0 1,-1 2,-1 0,-1 1,-1 1,-2l0 0 0 0c-1,0 -1,1 -2,0 0,0 0,0 0,-1l-1 -2 4 -3 2 2c0,0 1,0 1,1 0,0 -1,0 -1,1l0 0 0 0c1,0 2,-1 2,-2 1,0 2,-1 3,-1l-1 -1 0 1zm-10 1l0 0 -2 -6 0 0 5 4 -3 2z"/>
   <path class="fil5" d="M431 416c0,1 0,1 0,2 0,0 0,1 0,2 -1,1 -2,1 -2,2 -1,0 -1,0 -2,-1l-6 -7c-1,-1 -1,-1 0,-2l0 0 0 0c-1,0 -1,1 -2,1 -1,1 -2,2 -3,2l1 1 0 0c1,-1 1,-1 2,0l6 7c1,1 1,2 0,2l0 0 0 1c1,-1 3,-3 4,-4 1,-1 3,-2 4,-3 -1,-1 -1,-2 -2,-3l0 0z"/>
   <path class="fil6" d="M312 424c0,0 1,0 1,-1 0,1 -1,1 -1,1z"/>
   <path class="fil6" d="M315 423c0,0 0,0 0,0 0,0 0,0 0,0z"/>
   <path class="fil6" d="M313 423c1,0 1,0 1,0 0,0 0,0 -1,0z"/>
   <path class="fil6" d="M311 424c0,0 0,0 1,0 -1,0 -1,0 -1,0z"/>
   <path class="fil6" d="M324 420c0,0 0,0 0,0 0,0 0,0 0,0 0,0 0,0 0,0z"/>
   <path class="fil6" d="M310 424c0,0 0,0 0,0 0,0 0,0 0,0z"/>
   <path class="fil6" d="M306 425c1,0 1,0 2,0 -1,0 -1,0 -2,0z"/>
   <path class="fil6" d="M308 425c0,0 1,0 1,0 0,0 -1,0 -1,0z"/>
   <path class="fil6" d="M380 409c0,0 0,0 0,0 0,0 0,0 0,0z"/>
   <path class="fil6" d="M383 409c0,0 0,0 0,0 0,0 0,0 0,0z"/>
   <path class="fil6" d="M305 426c0,0 0,0 0,0 0,0 0,0 0,0z"/>
   <path class="fil6" d="M374 408c0,0 1,0 1,0 0,0 -1,0 -1,0z"/>
   <path class="fil6" d="M386 410c0,0 0,0 0,0 0,0 0,0 0,0z"/>
   <path class="fil6" d="M367 408c0,0 0,0 0,0 0,0 0,0 0,0z"/>
   <path class="fil6" d="M372 408c0,0 0,0 0,0 0,0 0,0 0,0z"/>
   <path class="fil6" d="M324 420c1,0 1,0 1,-1 0,1 0,1 -1,1z"/>
   <path class="fil6" d="M369 408c0,0 0,0 0,0 0,0 0,0 0,0z"/>
   <path class="fil6" d="M377 409c0,0 0,0 0,0 0,0 0,0 0,0z"/>
   <path class="fil6" d="M282 429c0,0 0,0 1,0 -1,0 -1,0 -1,0z"/>
   <path class="fil6" d="M284 429c0,0 1,0 1,0 0,0 -1,0 -1,0z"/>
   <path class="fil6" d="M286 429c1,0 1,0 1,0 0,0 0,0 -1,0z"/>
   <path class="fil6" d="M303 426c0,0 1,0 1,0 0,0 -1,0 -1,0z"/>
   <path class="fil6" d="M274 430c1,0 1,0 1,0 0,0 0,0 -1,0z"/>
   <path class="fil6" d="M289 429c0,0 0,0 0,0 0,0 0,0 0,0z"/>
   <path class="fil6" d="M277 430c0,0 1,0 1,0 0,0 -1,0 -1,0z"/>
   <path class="fil6" d="M279 429c1,0 1,0 1,0 0,0 0,0 -1,0z"/>
   <path class="fil6" d="M293 428c0,0 0,0 0,0 0,0 0,0 0,0z"/>
   <path class="fil6" d="M300 427c0,0 0,0 1,0 -1,0 -1,0 -1,0z"/>
   <path class="fil6" d="M296 428c1,0 1,0 1,0 0,0 0,0 -1,0z"/>
   <path class="fil6" d="M295 428c0,0 0,0 0,0 0,0 0,0 0,0z"/>
   <path class="fil6" d="M302 427c0,0 0,0 0,-1 0,1 0,1 0,1z"/>
   <path class="fil6" d="M298 427c0,0 1,0 1,0 0,0 -1,0 -1,0z"/>
   <path class="fil6" d="M291 429c0,0 0,-1 0,-1 0,0 0,1 0,1z"/>
   <path class="fil6" d="M348 411c0,0 0,0 0,0 0,0 0,0 0,0z"/>
   <path class="fil6" d="M350 410c0,0 0,1 0,1 0,0 0,0 0,0 0,0 0,0 0,-1z"/>
   <path class="fil6" d="M358 409c0,0 0,0 0,0 0,0 0,0 0,0z"/>
   <path class="fil6" d="M360 409c0,0 0,0 0,0 0,0 0,0 0,0z"/>
   <path class="fil6" d="M352 410c0,0 0,0 0,0 0,0 0,0 0,0z"/>
   <path class="fil6" d="M362 409c0,0 0,0 0,0 0,0 0,0 0,0z"/>
   <path class="fil6" d="M132 389c0,0 0,0 0,0 2,3 5,5 7,7 10,-2 18,-3 25,-4 -5,-4 -11,-9 -16,-13 0,-1 0,-1 1,-1 2,-3 7,-7 11,-15 4,11 8,21 11,28 8,-1 15,-1 21,0 -6,-12 -14,-30 -21,-54 2,-7 3,-16 3,-25 0,-16 -6,-32 -13,-46 -1,-3 -1,-7 -1,-10 0,-30 4,-58 11,-82 24,11 58,19 93,21 -1,42 -2,85 -1,130 -1,0 -2,0 -4,0 -1,0 -2,-1 -3,-1 -6,0 -11,0 -17,-1 -1,0 -2,0 -3,0 -14,-2 -27,-4 -39,-8 -2,0 -3,0 -4,-1 -2,0 -5,-1 -7,-2 -2,-1 -5,-2 -7,-3 19,17 47,26 85,29 0,24 1,48 3,73 3,0 7,0 10,0 2,-25 3,-49 3,-72 14,1 29,1 45,0 18,-1 35,-5 51,-9 -7,29 -16,50 -23,62 7,-1 14,-2 22,-2 6,-14 14,-37 20,-66 31,-11 52,-25 57,-28 0,0 0,-1 0,-1 -12,39 -36,72 -68,95 9,1 17,2 25,4 44,-38 71,-93 71,-156 0,-114 -93,-207 -207,-207 -82,0 -152,48 -186,117 -5,-6 -9,-10 -13,-13 0,-15 -15,-18 -22,-17 14,2 18,19 18,19 -19,29 -21,78 -15,89 -18,-7 -45,-10 -45,-10 -8,-6 -8,-17 -6,-24 -7,6 -5,24 3,29 3,32 28,72 40,80 -12,-1 -32,0 -32,0 -9,-6 -11,-11 -10,-21 -7,7 -3,19 9,26 13,37 34,56 46,66 12,11 48,22 72,17zm11 -28l0 0c-9,-7 -12,-30 -2,-38 -15,2 -23,24 -2,61 0,1 0,1 0,1 -25,-29 -26,-62 -26,-64 0,-3 4,-42 24,-67 9,9 21,30 23,49 2,20 0,33 -17,58zm4 -123l0 0c0,2 0,4 0,5 -4,-6 -7,-9 -7,-9 0,-15 -11,-20 -15,-21 8,6 11,14 9,20 -12,14 -19,33 -22,41 -2,-3 -2,-3 -2,-3 0,0 16,-20 13,-53 -2,-18 -12,-38 -23,-54 26,-60 83,-105 151,-113 -11,3 -19,7 -19,11 0,2 2,5 5,6 0,0 0,0 0,1 -10,6 -21,14 -30,23 -6,-2 -11,-4 -16,-6 4,3 9,6 14,8 -17,17 -31,39 -42,69 -8,-4 -16,-8 -23,-12 3,6 11,12 21,18 -6,20 -11,43 -14,69zm236 -75l0 0c0,0 0,0 0,0 -9,-25 -21,-45 -35,-61 20,-5 31,-13 27,-22 0,0 0,0 0,0 13,8 25,18 35,29l0 0c0,0 19,32 -27,54zm-107 -54l0 0c23,1 46,-1 64,-5 13,17 24,38 32,64 -21,7 -55,14 -93,14 0,-24 -2,-49 -3,-73zm-32 -38l0 0c7,2 16,4 26,4l0 0c0,0 0,0 0,0l-1 0 0 9c0,6 0,12 -1,18 -18,0 -37,-3 -54,-8 9,-11 20,-18 30,-22 0,0 0,-1 0,-1zm31 13l0 0 0 -9 -1 0c0,0 0,0 0,0 11,0 20,-1 28,-3 11,4 22,13 33,25 -15,3 -36,6 -59,5 -1,-6 -1,-12 -1,-18zm84 -13l0 0c0,0 0,0 0,0 0,0 13,11 -6,21 -2,1 -6,2 -11,3 -10,-10 -22,-19 -33,-26 3,-2 5,-4 5,-7 0,-4 -7,-8 -18,-11 22,3 44,10 63,20zm-186 96l0 0c10,-29 23,-53 38,-70 16,6 36,10 57,11 -2,25 -3,49 -4,74 -30,0 -62,-5 -91,-15zm173 151l0 0c-1,0 -2,0 -3,0 -4,1 -7,1 -10,2 -7,1 -14,2 -21,3 -1,0 -2,0 -3,0 -7,1 -14,1 -20,1 -2,1 -3,1 -4,1 -1,0 -3,0 -4,0 1,-45 0,-88 -1,-129 11,0 23,0 34,-2 25,-3 46,-7 62,-13 6,23 9,48 9,75 0,19 -2,37 -5,53 -11,4 -23,6 -34,9zm114 -65l0 0c-9,25 -34,41 -62,51 2,-20 2,-42 0,-66 -2,-23 -6,-43 -11,-61 24,-11 38,-25 42,-44 20,30 32,66 32,104 0,1 0,1 0,1 0,5 0,10 0,14 0,0 -1,1 -1,1zm-383 -97l0 0c30,29 33,53 33,65 1,18 -9,37 -9,37 -3,-5 -7,-9 -12,-12 -1,-7 -3,-17 2,-23 -11,4 -11,15 -11,15 -6,-4 -12,-6 -15,-7 -6,-32 -2,-52 12,-75zm-52 77l0 0c0,0 29,3 52,17 22,14 32,33 32,33 0,0 -2,6 -2,11 -5,-11 -22,-22 -33,-13 6,1 27,9 27,27 0,0 -26,-4 -40,-13 -13,-9 -30,-28 -36,-62zm9 83l0 0c12,-1 47,-2 73,15 0,0 0,7 4,17 -6,-2 -14,-2 -20,6 18,-2 27,11 27,12 0,0 0,0 0,0 2,3 4,6 6,9 -53,6 -81,-31 -90,-59z"/>
   <path class="fil7" d="M160 303c-2,-19 -14,-40 -23,-49 -20,25 -24,64 -24,67 0,2 1,35 26,64 0,0 0,0 0,-1 -21,-37 -13,-59 2,-61 -10,8 -7,31 2,38 17,-25 19,-38 17,-58z"/>
   <path class="fil7" d="M80 238c0,0 0,-11 11,-15 -5,6 -3,16 -2,23 5,3 9,7 12,12 0,0 10,-19 9,-37 0,-12 -3,-36 -33,-65 -14,23 -18,43 -12,75 3,1 9,3 15,7z"/>
   <path class="fil7" d="M61 295c14,9 40,13 40,13 0,-18 -21,-26 -27,-27 11,-9 28,2 33,13 0,-5 2,-11 2,-11 0,0 -10,-19 -32,-33 -23,-14 -52,-17 -52,-17 6,34 23,53 36,62z"/>
   <path class="fil7" d="M124 375c-2,-3 -4,-6 -6,-9 0,0 0,0 0,0 0,-1 -9,-14 -27,-12 6,-8 14,-8 20,-6 -4,-10 -4,-17 -4,-17 -26,-17 -61,-16 -73,-15 9,28 37,65 90,59z"/>
   <polygon class="fil4" points="228,239 234,239 234,234 228,234 "/>
   <polygon class="fil4" points="246,239 251,239 251,234 246,234 "/>
   <polygon class="fil4" points="292,264 297,264 297,259 292,259 "/>
   <polygon class="fil4" points="306,259 300,259 300,264 306,264 "/>
   <polygon class="fil4" points="292,272 297,272 297,267 292,267 "/>
   <polygon class="fil4" points="306,267 300,267 300,272 306,272 "/>
   <polygon class="fil4" points="315,306 321,306 321,301 315,301 "/>
   <polygon class="fil4" points="237,239 243,239 243,234 237,234 "/>
   <path class="fil8" d="M386 410c-1,0 -2,-1 -3,-1 0,0 0,0 0,0 -1,0 -2,0 -3,0 0,0 0,0 0,0 -1,0 -2,0 -3,0 0,0 0,0 0,0 -1,0 -2,0 -2,-1 0,0 -1,0 -1,0 0,0 -1,0 -2,0 0,0 0,0 0,0 -1,0 -2,0 -3,0 0,0 0,0 0,0 -1,0 -1,0 -2,0 0,0 0,0 0,0 -2,0 -3,0 -5,1 0,0 0,0 0,0 -1,0 -1,0 -2,0 0,0 0,0 0,0 -1,0 -2,0 -2,0 0,0 0,0 0,0 -2,0 -4,1 -6,1 0,0 0,0 0,0 -1,0 -2,0 -2,0 0,1 0,1 0,1 -1,0 -2,0 -2,0 0,0 0,0 0,0 -7,2 -13,4 -17,6 0,0 -1,0 -1,1 0,0 0,0 0,0 -1,0 -1,0 -1,0 0,0 0,0 0,0 -1,0 -1,0 -1,1 0,0 0,0 0,0 -1,0 -1,0 -1,0 0,0 -1,0 -1,0 0,0 0,0 -1,0 0,0 0,0 0,0 0,0 0,0 0,0 0,0 0,0 0,0 0,1 0,1 -1,1 0,0 0,0 0,0 0,0 -1,0 -1,0 -3,1 -5,2 -8,3 0,0 0,0 0,0 -1,0 -1,0 -1,0 0,0 0,0 -1,0 0,0 0,0 0,0 0,1 -1,1 -1,1 0,0 0,0 0,0 -1,0 -1,0 -1,0 0,0 0,0 -1,0 0,0 0,0 0,0 -1,1 -1,1 -1,1 0,0 -1,0 -1,0 0,0 0,0 0,0 -1,0 -1,0 -2,0 0,0 0,1 -1,1 0,0 0,0 0,0 -1,0 -1,0 -1,0 0,0 -1,0 -1,0 0,0 0,0 -1,0 0,1 0,1 0,1 -1,0 -1,0 -1,0 -1,0 -1,0 -1,0 0,0 -1,0 -1,0 0,0 -1,0 -1,0 0,0 0,0 -1,1 0,0 0,0 -1,0 0,0 0,0 -1,0 0,0 0,0 0,0 -1,0 -1,0 -2,0 0,0 0,0 0,0 -1,0 -1,0 -2,0 0,0 0,1 0,1 -1,0 -1,0 -2,0 0,0 0,0 0,0 -1,0 -1,0 -2,0 0,0 0,0 -1,0 0,0 0,0 -1,0 0,0 -1,0 -1,0 0,0 -1,0 -1,0 -1,0 -1,0 -1,0 -1,0 -1,0 -2,0 0,0 0,0 -1,0 0,1 -1,1 -1,1 0,0 -1,0 -1,0 -1,0 -1,0 -2,0 0,0 0,0 -1,0 -1,0 -1,0 -2,0 -35,0 -55,-12 -74,-19 -13,-4 -36,2 -37,2 33,21 71,33 112,33 43,0 83,-13 116,-36 -1,0 -2,0 -3,0 0,0 0,0 0,0z"/>
   <path class="fil2" d="M382 390c-3,0 -5,0 -7,0 -8,0 -15,1 -22,2 -18,2 -33,7 -37,9 -6,2 -21,9 -39,10 -3,0 -7,0 -10,0 -8,0 -15,-2 -23,-5 -19,-7 -33,-14 -52,-15 -6,-1 -13,-1 -21,0 -1,0 -3,0 -4,1 -1,0 -2,0 -3,0 -7,1 -15,2 -25,4 5,4 9,8 14,11 3,2 5,4 8,6 0,0 0,0 0,0 1,0 24,-6 37,-2 19,7 39,19 74,19 1,0 1,0 2,0 1,0 1,0 1,0 1,0 1,0 2,0 0,0 1,0 1,0 0,0 1,0 1,-1 1,0 1,0 1,0 1,0 1,0 2,0 0,0 0,0 1,0 0,0 1,0 1,0 0,0 1,0 1,0 1,0 1,0 1,0 1,0 1,0 1,0 1,0 1,0 2,0 0,0 0,0 0,0 1,0 1,0 2,0 0,0 0,-1 0,-1 1,0 1,0 2,0 0,0 0,0 0,0 1,0 1,0 2,0 0,0 0,0 0,0 1,0 1,0 1,0 1,0 1,0 1,0 1,-1 1,-1 1,-1 0,0 1,0 1,0 0,0 1,0 1,0 0,0 0,0 1,0 0,0 0,0 1,0 0,0 0,0 0,-1 1,0 1,0 1,0 0,0 1,0 1,0 0,0 0,0 1,0 0,0 0,0 0,0 1,0 1,-1 1,-1 1,0 1,0 2,0 0,0 0,0 0,0 0,0 1,0 1,0 0,0 0,0 1,-1 0,0 0,0 0,0 1,0 1,0 1,0 0,0 0,0 1,0 0,0 0,0 0,0 0,0 1,0 1,-1 0,0 0,0 0,0 1,0 1,0 1,0 0,0 0,0 1,0 0,0 0,0 0,0 3,-1 5,-2 8,-3 0,0 1,0 1,0 0,0 0,0 0,0 0,0 0,0 0,0 1,0 1,0 1,-1 0,0 0,0 0,0 0,0 0,0 0,0 0,0 0,0 0,0 1,0 1,0 1,0 0,0 1,0 1,0 0,0 0,0 1,0 0,0 0,0 0,0 0,-1 0,-1 1,-1 0,0 0,0 0,0 0,0 0,0 1,0 0,0 0,0 0,0 0,-1 1,-1 1,-1 4,-2 10,-4 17,-6 0,0 0,0 0,0 0,0 1,0 2,0 0,0 0,0 0,0 0,0 0,-1 0,-1 0,0 1,0 2,0 0,0 0,0 0,0 2,0 4,-1 6,-1 0,0 0,0 0,0 0,0 1,0 2,0 0,0 0,0 0,0 1,0 1,0 2,0 0,0 0,0 0,0 2,-1 3,-1 5,-1 0,0 0,0 0,0 1,0 1,0 2,0 0,0 0,0 0,0 1,0 2,0 3,0 0,0 0,0 0,0 1,0 2,0 2,0 0,0 1,0 1,0 0,1 1,1 2,1 0,0 0,0 0,0 1,0 2,0 3,0 0,0 0,0 0,0 1,0 2,0 3,0 0,0 0,0 0,0 1,0 2,1 3,1 0,0 0,0 0,0 1,0 2,0 3,0 3,-2 6,-4 8,-6 4,-3 8,-6 12,-10 -8,-2 -16,-3 -25,-4 -1,0 -1,0 -2,0z"/>
   <path class="fil3" d="M245 289l-26 -21 -29 22 7 0 0 25c12,4 25,6 39,8l0 -34 9 0zm-38 14l0 0 -5 0 0 -6 5 0 0 6zm0 -8l0 0 -5 0 0 -5 5 0 0 5zm8 8l0 0 -6 0 0 -6 6 0 0 6zm0 -8l0 0 -6 0 0 -5 6 0 0 5z"/>
   <polygon class="fil4" points="202,295 207,295 207,290 202,290 "/>
   <polygon class="fil4" points="209,295 215,295 215,290 209,290 "/>
   <polygon class="fil4" points="202,303 207,303 207,297 202,297 "/>
   <polygon class="fil4" points="209,303 215,303 215,297 209,297 "/>
  </g>
 </g>
</svg>
